<svg width="67" height="64" viewBox="0 0 67 64" fill="none" xmlns="http://www.w3.org/2000/svg">
<path d="M0 15C0 6.71573 6.71573 0 15 0H52C60.2843 0 67 6.71573 67 15V49C67 57.2843 60.2843 64 52 64H15C6.71573 64 0 57.2843 0 49V15Z" fill="#FEDBFF"/>
<path d="M32.25 14.5H34.75V18.25H32.25V14.5Z" fill="#BC5CBE"/>
<path d="M47.25 30.75H51V33.25H47.25V30.75Z" fill="#BC5CBE"/>
<path d="M32.25 45.75H34.75V49.5H32.25V45.75Z" fill="#BC5CBE"/>
<path d="M16 30.75H19.75V33.25H16V30.75Z" fill="#BC5CBE"/>
<path d="M20.312 20.6045L22.0798 18.8367L24.7314 21.4884L22.9637 23.2561L20.312 20.6045Z" fill="#BC5CBE"/>
<path d="M42.2495 21.4762L44.9012 18.8245L46.6689 20.5923L44.0173 23.244L42.2495 21.4762Z" fill="#BC5CBE"/>
<path d="M42.2534 42.5206L44.0212 40.7529L46.6728 43.4045L44.9051 45.1723L42.2534 42.5206Z" fill="#BC5CBE"/>
<path d="M20.3374 43.4125L22.9874 40.75L24.7499 42.525L22.0999 45.175L20.3374 43.4125Z" fill="#BC5CBE"/>
<path d="M33.5 22C31.5222 22 29.5888 22.5865 27.9443 23.6853C26.2998 24.7841 25.0181 26.3459 24.2612 28.1732C23.5043 30.0004 23.3063 32.0111 23.6922 33.9509C24.078 35.8907 25.0304 37.6725 26.4289 39.0711C27.8275 40.4696 29.6093 41.422 31.5491 41.8079C33.4889 42.1937 35.4996 41.9957 37.3268 41.2388C39.1541 40.4819 40.7159 39.2002 41.8147 37.5557C42.9135 35.9112 43.5 33.9778 43.5 32C43.5 29.3478 42.4464 26.8043 40.5711 24.9289C38.6957 23.0536 36.1522 22 33.5 22ZM33.5 39.5C31.5109 39.5 29.6032 38.7098 28.1967 37.3033C26.7902 35.8968 26 33.9891 26 32C26 30.0109 26.7902 28.1032 28.1967 26.6967C29.6032 25.2902 31.5109 24.5 33.5 24.5V39.5Z" fill="#BC5CBE"/>
</svg>
