<svg width="67" height="64" viewBox="0 0 67 64" fill="none" xmlns="http://www.w3.org/2000/svg">
<path d="M0 15C0 6.71573 6.71573 0 15 0H52C60.2843 0 67 6.71573 67 15V49C67 57.2843 60.2843 64 52 64H15C6.71573 64 0 57.2843 0 49V15Z" fill="#C3F6BF"/>
<path d="M34.6312 20.2969H32.2979V33.2841L40.728 37.2908L41.7296 35.1833L34.6312 31.8096V20.2969Z" fill="#749771"/>
<path d="M33.5 14.5C23.835 14.5 16 22.335 16 32C16 41.665 23.835 49.5 33.5 49.5C43.165 49.5 51 41.665 51 32C51 22.335 43.165 14.5 33.5 14.5ZM33.5 47.1667C25.1237 47.1667 18.3333 40.3763 18.3333 32C18.3333 23.6237 25.1237 16.8333 33.5 16.8333C41.8763 16.8333 48.6667 23.6237 48.6667 32C48.6667 40.3763 41.8763 47.1667 33.5 47.1667Z" fill="#749771"/>
</svg>
