<svg xmlns="http://www.w3.org/2000/svg" width="689px" height="135px" viewBox="0 0 689 135" version="1.1"><g fill="#FFF"><rect x="676" y="82" width="13" height="13"/><rect x="616" y="82" width="13" height="13"/><rect x="676" y="67" width="13" height="13"/><rect x="616" y="67" width="13" height="13"/><rect x="676" y="52" width="13" height="13"/><rect x="646" y="52" width="13" height="13"/><rect x="616" y="52" width="13" height="13"/><rect x="676" y="37" width="13" height="13"/><rect x="661" y="37" width="13" height="13"/><rect x="631" y="37" width="13" height="13"/><rect x="616" y="37" width="13" height="13"/><rect x="676" y="22" width="13" height="13"/><rect x="616" y="22" width="13" height="13"/><rect x="572" y="82" width="13" height="13"/><rect x="557" y="82" width="13" height="13"/><rect x="542" y="82" width="13" height="13"/><rect x="587" y="67" width="13" height="13"/><rect x="527" y="67" width="13" height="13"/><rect x="587" y="52" width="13" height="13"/><rect x="527" y="52" width="13" height="13"/><rect x="587" y="37" width="13" height="13"/><rect x="527" y="37" width="13" height="13"/><rect x="572" y="22" width="13" height="13"/><rect x="557" y="22" width="13" height="13"/><rect x="542" y="22" width="13" height="13"/><rect x="439" y="82" width="13" height="13"/><rect x="484" y="67" width="13" height="13"/><rect x="469" y="67" width="13" height="13"/><rect x="454" y="67" width="13" height="13"/><rect x="439" y="67" width="13" height="13"/><rect x="499" y="52" width="13" height="13"/><rect x="439" y="52" width="13" height="13"/><rect x="499" y="37" width="13" height="13"/><rect x="439" y="37" width="13" height="13"/><rect x="484" y="22" width="13" height="13"/><rect x="469" y="22" width="13" height="13"/><rect x="454" y="22" width="13" height="13"/><rect x="439" y="22" width="13" height="13"/><rect x="410" y="82" width="13" height="13"/><rect x="395" y="82" width="13" height="13"/><rect x="380" y="82" width="13" height="13"/><rect x="395" y="67" width="13" height="13"/><rect x="395" y="52" width="13" height="13"/><rect x="395" y="37" width="13" height="13"/><rect x="410" y="22" width="13" height="13"/><rect x="395" y="22" width="13" height="13"/><rect x="380" y="22" width="13" height="13"/><rect x="351" y="82" width="13" height="13"/><rect x="336" y="82" width="13" height="13"/><rect x="321" y="82" width="13" height="13"/><rect x="306" y="82" width="13" height="13"/><rect x="351" y="67" width="13" height="13"/><rect x="291" y="67" width="13" height="13"/><rect x="351" y="52" width="13" height="13"/><rect x="336" y="52" width="13" height="13"/><rect x="321" y="52" width="13" height="13"/><rect x="291" y="52" width="13" height="13"/><rect x="291" y="37" width="13" height="13"/><rect x="351" y="22" width="13" height="13"/><rect x="336" y="22" width="13" height="13"/><rect x="321" y="22" width="13" height="13"/><rect x="306" y="22" width="13" height="13"/><rect x="263" y="82" width="13" height="13"/><rect x="248" y="82" width="13" height="13"/><rect x="233" y="82" width="13" height="13"/><rect x="248" y="67" width="13" height="13"/><rect x="248" y="52" width="13" height="13"/><rect x="248" y="37" width="13" height="13"/><rect x="263" y="22" width="13" height="13"/><rect x="248" y="22" width="13" height="13"/><rect x="233" y="22" width="13" height="13"/><rect x="190" y="82" width="13" height="13"/><rect x="175" y="82" width="13" height="13"/><rect x="160" y="82" width="13" height="13"/><rect x="145" y="82" width="13" height="13"/><rect x="205" y="67" width="13" height="13"/><rect x="145" y="67" width="13" height="13"/><rect x="205" y="52" width="13" height="13"/><rect x="145" y="52" width="13" height="13"/><rect x="205" y="37" width="13" height="13"/><rect x="145" y="37" width="13" height="13"/><rect x="190" y="22" width="13" height="13"/><rect x="175" y="22" width="13" height="13"/><rect x="160" y="22" width="13" height="13"/><rect x="145" y="22" width="13" height="13"/><rect x="0" y="15" width="125" height="120" rx="20"/><rect x="0" y="15" width="20" height="20"/><rect x="105" y="15" width="20" height="20"/></g><g fill="#408712"><rect opacity="0.17" x="25" y="80" width="5" height="5"/><rect opacity="0.17" x="95" y="80" width="5" height="5"/><rect opacity="0.25" x="95" y="85" width="5" height="5"/><rect opacity="0.88" x="90" y="85" width="5" height="5"/><rect opacity="0.65" x="85" y="85" width="5" height="5"/><rect opacity="0.6" x="80" y="85" width="5" height="5"/><polygon opacity="0.53" points="80 85 80 90 70 90 70 85"/><polygon opacity="0.88" points="70 85 70 90 65 90 65 95 60 95 60 90 55 90 55 85"/><rect opacity="0.25" x="65" y="90" width="5" height="5"/><rect opacity="0.6" x="60" y="95" width="5" height="5"/><rect opacity="0.25" x="60" y="100" width="5" height="5"/><rect opacity="0.25" x="55" y="90" width="5" height="5"/><polygon opacity="0.53" points="55 85 55 90 45 90 45 85"/><rect opacity="0.6" x="40" y="85" width="5" height="5"/><rect opacity="0.65" x="35" y="85" width="5" height="5"/><rect opacity="0.88" x="30" y="85" width="5" height="5"/><rect opacity="0.25" x="25" y="85" width="5" height="5"/><rect opacity="0.6" x="45" y="105" width="5" height="5"/><rect opacity="0.7" x="45" y="100" width="5" height="5"/><rect opacity="0.17" x="40" y="100" width="5" height="5"/><rect opacity="0.6" x="45" y="95" width="5" height="5"/><polygon opacity="0.88" points="40 95 40 100 45 100 45 94.2 45 90 35 90 35 95"/><rect opacity="0.1" x="35" y="95" width="5" height="5"/><rect opacity="0.33" x="45" y="90" width="5" height="5"/><rect opacity="0.1" x="30" y="90" width="5" height="5"/><rect opacity="0.6" x="75" y="105" width="5" height="5"/><rect opacity="0.7" x="75" y="100" width="5" height="5"/><rect opacity="0.17" x="80" y="100" width="5" height="5"/><rect opacity="0.6" x="75" y="95" width="5" height="5"/><rect opacity="0.88" x="80" y="95" width="5" height="5"/><rect opacity="0.1" x="85" y="95" width="5" height="5"/><rect opacity="0.33" x="75" y="90" width="5" height="5"/><rect opacity="0.88" x="80" y="90" width="5" height="5"/><rect opacity="0.88" x="85" y="90" width="5" height="5"/><rect opacity="0.1" x="90" y="90" width="5" height="5"/><rect opacity="0.25" x="70" y="115" width="5" height="5"/><rect opacity="0.7" x="65" y="115" width="5" height="5"/><rect opacity="0.6" x="60" y="115" width="5" height="5"/><rect opacity="0.7" x="55" y="115" width="5" height="5"/><rect opacity="0.25" x="50" y="115" width="5" height="5"/><rect opacity="0.4" x="70" y="110" width="5" height="5"/><rect opacity="0.4" x="50" y="110" width="5" height="5"/><rect opacity="0.1" x="70" y="105" width="5" height="5"/><rect opacity="0.1" x="50" y="105" width="5" height="5"/><rect opacity="0.45" x="70" y="75" width="5" height="5"/><polygon points="50 65 50 75 55 75 55 76.25 55 80 70 80 70 75 75 75 75 65 70 65 70 60 55 60 55 65"/><rect opacity="0.45" x="50" y="75" width="5" height="5"/><rect opacity="0.45" x="70" y="60" width="5" height="5"/><rect opacity="0.45" x="50" y="60" width="5" height="5"/><rect opacity="0.5" x="60" y="80" width="5" height="5"/><rect opacity="0.1" x="40" y="60" width="5" height="5"/><rect opacity="0.7" x="35" y="60" width="5" height="5"/><polygon points="40 60 40 55 30 55 30 50 25 50 25 55 20 55 20 60 25 60 25 65 35 65 35 60"/><rect opacity="0.7" x="20" y="60" width="5" height="5"/><polygon opacity="0.88" points="40 55 40 60 45 60 45 50 35 50 35 55"/><rect opacity="0.7" x="15" y="55" width="5" height="5"/><rect opacity="0.17" x="10" y="55" width="5" height="5"/><rect opacity="0.45" x="20" y="50" width="5" height="5"/><rect opacity="0.1" x="40" y="45" width="5" height="5"/><rect opacity="0.5" x="35" y="45" width="5" height="5"/><rect x="30" y="45" width="5" height="5"/><rect opacity="0.4" x="25" y="45" width="5" height="5"/><rect opacity="0.1" x="80" y="60" width="5" height="5"/><rect opacity="0.7" x="85" y="60" width="5" height="5"/><polygon points="85 55 85 60 90 60 90 65 100 65 100 60 105 60 105 55 100 55 100 50 95 50 95 55"/><rect opacity="0.7" x="100" y="60" width="5" height="5"/><polygon opacity="0.88" points="80 50 80 60 85 60 85 55 90 55 90 50"/><rect opacity="0.7" x="105" y="55" width="5" height="5"/><rect opacity="0.17" x="110" y="55" width="5" height="5"/><rect opacity="0.45" x="100" y="50" width="5" height="5"/><rect opacity="0.1" x="80" y="45" width="5" height="5"/><rect opacity="0.5" x="85" y="45" width="5" height="5"/><rect x="90" y="45" width="5" height="5"/><rect opacity="0.4" x="95" y="45" width="5" height="5"/><rect opacity="0.33" x="0" y="35" width="5" height="5"/><rect opacity="0.4" x="5" y="30" width="5" height="5"/><rect opacity="0.65" x="0" y="30" width="5" height="5"/><rect opacity="0.1" x="15" y="25" width="5" height="5"/><rect opacity="0.7" x="10" y="25" width="5" height="5"/><rect opacity="0.88" x="5" y="25" width="5" height="5"/><polygon points="0 10 0 30 5 30 5 25 20 25 20 20 35 20 35 15 30 15 30 10 25 10 25 5 15 5 15 0 5 0 5 10"/><rect opacity="0.1" x="30" y="20" width="5" height="5"/><rect opacity="0.1" x="25" y="20" width="5" height="5"/><rect opacity="0.7" x="20" y="20" width="5" height="5"/><rect opacity="0.4" x="30" y="10" width="5" height="5"/><rect opacity="0.44" x="25" y="5" width="5" height="5"/><rect opacity="0.88" x="0" y="5" width="5" height="5"/><rect opacity="0.25" x="20" y="0" width="5" height="5"/><rect opacity="0.8" x="15" y="0" width="5" height="5"/><rect opacity="0.4" x="0" y="0" width="5" height="5"/><rect opacity="0.33" x="120" y="35" width="5" height="5"/><rect opacity="0.4" x="115" y="30" width="5" height="5"/><rect opacity="0.65" x="120" y="30" width="5" height="5"/><rect opacity="0.1" x="105" y="25" width="5" height="5"/><rect opacity="0.7" x="110" y="25" width="5" height="5"/><rect opacity="0.88" x="115" y="25" width="5" height="5"/><polygon points="120 30 125 30 125 10 120 10 120 0 110 0 110 5 100 5 100 10 95 10 95 15 90 15 90 20 105 20 105 25 120 25"/><rect opacity="0.1" x="90" y="20" width="5" height="5"/><rect opacity="0.1" x="95" y="20" width="5" height="5"/><rect opacity="0.7" x="100" y="20" width="5" height="5"/><rect opacity="0.4" x="90" y="10" width="5" height="5"/><rect opacity="0.44" x="95" y="5" width="5" height="5"/><rect opacity="0.88" x="120" y="5" width="5" height="5"/><rect opacity="0.25" x="100" y="0" width="5" height="5"/><rect opacity="0.8" x="105" y="0" width="5" height="5"/><rect opacity="0.4" x="120" y="0" width="5" height="5"/></g></svg>