<svg width="67" height="65" viewBox="0 0 67 65" fill="none" xmlns="http://www.w3.org/2000/svg">
<path d="M0 15.3982C0 7.11392 6.71573 0.398193 15 0.398193H52C60.2843 0.398193 67 7.11392 67 15.3982V49.3982C67 57.6825 60.2843 64.3982 52 64.3982H15C6.71573 64.3982 0 57.6825 0 49.3982V15.3982Z" fill="#FEDBFF"/>
<path d="M38.7495 20.1482C38.7495 17.2487 36.399 14.8982 33.4995 14.8982C30.6 14.8982 28.2495 17.2487 28.2495 20.1482V30.6482C28.2495 33.5477 30.6 35.8982 33.4995 35.8982C36.399 35.8982 38.7495 33.5477 38.7495 30.6482V20.1482Z" stroke="#BC5CBE" stroke-width="2"/>
<path d="M21.25 28.8982V30.6482C21.25 37.4137 26.7345 42.8982 33.5 42.8982C40.2655 42.8982 45.75 37.4137 45.75 30.6482V28.8982" stroke="#BC5CBE" stroke-width="2" stroke-linecap="round" stroke-linejoin="round"/>
<path d="M33.4995 42.8982V49.8982M33.4995 49.8982H28.2495M33.4995 49.8982H38.7495" stroke="#BC5CBE" stroke-width="2" stroke-linecap="round" stroke-linejoin="round"/>
</svg>
