<svg width="67" height="65" viewBox="0 0 67 65" fill="none" xmlns="http://www.w3.org/2000/svg">
<path d="M0 15.3982C0 7.11392 6.71573 0.398193 15 0.398193H52C60.2843 0.398193 67 7.11392 67 15.3982V49.3982C67 57.6825 60.2843 64.3982 52 64.3982H15C6.71573 64.3982 0 57.6825 0 49.3982V15.3982Z" fill="#D6DAFF"/>
<path d="M40.2564 20.0992L19.5044 40.8778C19.2645 41.1165 19.419 41.5253 19.7574 41.5514L22.1826 41.7248C22.3897 41.7411 22.5507 41.9112 22.5507 42.1172V44.2788C22.5507 44.4684 22.6887 44.6352 22.876 44.6679L24.7688 45.0047C24.9594 45.0374 25.0942 45.2009 25.0942 45.3939V46.6431C25.0942 46.9963 25.5214 47.1729 25.7711 46.9211L46.4574 26.2732L40.2564 20.0992Z" stroke="#5F659B" stroke-width="2" stroke-miterlimit="10"/>
<path d="M50.9822 21.6327C51.4586 21.188 51.4784 20.4424 51.0249 19.9748L46.6444 15.426C46.1975 14.9616 45.4549 14.9452 44.9849 15.39L42.54 17.666L48.6161 23.778L50.9822 21.6327Z" stroke="#5F659B" stroke-width="2" stroke-miterlimit="10"/>
<path d="M19.2613 44.7462C19.0477 44.5205 18.673 44.6088 18.581 44.9031L17.3652 48.7979C17.2699 49.102 17.5492 49.3898 17.8581 49.308L21.7719 48.2551C22.0676 48.1766 22.1695 47.8103 21.9592 47.5879L19.2613 44.7462Z" stroke="#5F659B" stroke-width="2" stroke-miterlimit="10"/>
<path d="M34.2559 42.4407L42.606 51.1426C43.158 51.7182 44.0749 51.7312 44.6434 51.172L51.7415 44.2099C52.31 43.6539 52.3297 42.7514 51.7842 42.1693L43.2008 33.536" stroke="#5F659B" stroke-width="2" stroke-miterlimit="10"/>
<path d="M45.1167 45.3186L49.875 40.5834" stroke="#5F659B" stroke-width="2" stroke-miterlimit="10" stroke-linecap="round"/>
<path d="M43.769 40.7499L46.9468 37.5877" stroke="#5F659B" stroke-width="2" stroke-miterlimit="10" stroke-linecap="round"/>
<path d="M38.5576 39.4353L43.5854 34.4319" stroke="#5F659B" stroke-width="2" stroke-miterlimit="10" stroke-linecap="round"/>
<path d="M24.0063 32.0515L15.2619 23.742C14.6835 23.1926 14.6704 22.2802 15.2323 21.7145L22.2285 14.6509C22.7872 14.0852 23.6941 14.0656 24.2791 14.6084L32.9545 23.1501" stroke="#5F659B" stroke-width="2" stroke-miterlimit="10"/>
<path d="M21.1182 21.2437L25.8732 16.5085" stroke="#5F659B" stroke-width="2" stroke-miterlimit="10" stroke-linecap="round"/>
<path d="M25.7056 22.5843L28.8833 19.4221" stroke="#5F659B" stroke-width="2" stroke-miterlimit="10" stroke-linecap="round"/>
<path d="M27.0264 27.7708L32.0542 22.7675" stroke="#5F659B" stroke-width="2" stroke-miterlimit="10" stroke-linecap="round"/>
</svg>
