<svg width="67" height="65" viewBox="0 0 67 65" fill="none" xmlns="http://www.w3.org/2000/svg">
<path d="M0 15.3982C0 7.11392 6.71573 0.398193 15 0.398193H52C60.2843 0.398193 67 7.11392 67 15.3982V49.3982C67 57.6825 60.2843 64.3982 52 64.3982H15C6.71573 64.3982 0 57.6825 0 49.3982V15.3982Z" fill="#C3F6BF"/>
<path d="M29.4512 36.9632C28.0802 38.7478 25.9244 39.8982 23.5 39.8982C19.3579 39.8982 16 36.5403 16 32.3982C16 28.2561 19.3579 24.8982 23.5 24.8982C25.9244 24.8982 28.0802 26.0485 29.4512 27.8332L38.7516 22.9095C38.5878 22.3508 38.5 21.7598 38.5 21.1482C38.5 17.6964 41.2982 14.8982 44.75 14.8982C48.2018 14.8982 51 17.6964 51 21.1482C51 24.6 48.2018 27.3982 44.75 27.3982C42.8058 27.3982 41.0689 26.5105 39.9226 25.1182L30.6224 30.0419C30.8674 30.7829 31 31.5751 31 32.3982C31 33.2213 30.8674 34.0135 30.6224 34.7545L39.9226 39.6782C41.0689 38.2859 42.8058 37.3982 44.75 37.3982C48.2018 37.3982 51 40.1964 51 43.6482C51 47.1 48.2018 49.8982 44.75 49.8982C41.2982 49.8982 38.5 47.1 38.5 43.6482C38.5 43.0366 38.5878 42.4456 38.7516 41.8869L29.4512 36.9632ZM23.5 37.3982C26.2614 37.3982 28.5 35.1596 28.5 32.3982C28.5 29.6368 26.2614 27.3982 23.5 27.3982C20.7386 27.3982 18.5 29.6368 18.5 32.3982C18.5 35.1596 20.7386 37.3982 23.5 37.3982ZM44.75 47.3982C46.8211 47.3982 48.5 45.7193 48.5 43.6482C48.5 41.5771 46.8211 39.8982 44.75 39.8982C42.6789 39.8982 41 41.5771 41 43.6482C41 45.7193 42.6789 47.3982 44.75 47.3982ZM44.75 24.8982C46.8211 24.8982 48.5 23.2193 48.5 21.1482C48.5 19.0771 46.8211 17.3982 44.75 17.3982C42.6789 17.3982 41 19.0771 41 21.1482C41 23.2193 42.6789 24.8982 44.75 24.8982Z" fill="#749771"/>
</svg>
