<svg width="67" height="65" viewBox="0 0 67 65" fill="none" xmlns="http://www.w3.org/2000/svg">
<path d="M0 15.3982C0 7.11392 6.71573 0.398193 15 0.398193H52C60.2843 0.398193 67 7.11392 67 15.3982V49.3982C67 57.6825 60.2843 64.3982 52 64.3982H15C6.71573 64.3982 0 57.6825 0 49.3982V15.3982Z" fill="#B9EEFF"/>
<path fill-rule="evenodd" clip-rule="evenodd" d="M35.1599 21.217C34.0443 22.3325 34.0443 24.1412 35.1599 25.2568L40.6419 30.739C41.7575 31.8546 43.5663 31.8546 44.6818 30.739L50.164 25.2568C51.2794 24.1412 51.2794 22.3325 50.164 21.217L44.6818 15.7349C43.5663 14.6193 41.7575 14.6193 40.6419 15.7349L35.1599 21.217ZM41.9887 17.0815L36.5065 22.5636C36.1346 22.9354 36.1346 23.5383 36.5065 23.9102L41.9887 29.3924C42.3604 29.7641 42.9633 29.7641 43.3353 29.3924L48.8172 23.9102C49.1891 23.5383 49.1891 22.9354 48.8172 22.5636L43.3353 17.0815C42.9633 16.7096 42.3604 16.7096 41.9887 17.0815Z" fill="#49869A"/>
<path fill-rule="evenodd" clip-rule="evenodd" d="M16 19.4281C16 17.3246 17.7052 15.6194 19.8088 15.6194H27.4263C29.5299 15.6194 31.2351 17.3246 31.2351 19.4281V27.0457C31.2351 29.1492 29.5299 30.8544 27.4263 30.8544H19.8088C17.7052 30.8544 16 29.1492 16 27.0457V19.4281ZM17.9044 19.4281C17.9044 18.3764 18.757 17.5238 19.8088 17.5238H27.4263C28.4781 17.5238 29.3307 18.3764 29.3307 19.4281V27.0457C29.3307 28.0974 28.4781 28.95 27.4263 28.95H19.8088C18.757 28.95 17.9044 28.0974 17.9044 27.0457V19.4281Z" fill="#49869A"/>
<path fill-rule="evenodd" clip-rule="evenodd" d="M19.8088 34.6631C17.7052 34.6631 16 36.3685 16 38.4719V46.0894C16 48.193 17.7052 49.8982 19.8088 49.8982H27.4263C29.5299 49.8982 31.2351 48.193 31.2351 46.0894V38.4719C31.2351 36.3685 29.5299 34.6631 27.4263 34.6631H19.8088ZM29.3307 38.4719C29.3307 37.4201 28.4781 36.5675 27.4263 36.5675H19.8088C18.757 36.5675 17.9044 37.4201 17.9044 38.4719V46.0894C17.9044 47.1412 18.757 47.9938 19.8088 47.9938H27.4263C28.4781 47.9938 29.3307 47.1412 29.3307 46.0894V38.4719Z" fill="#49869A"/>
<path fill-rule="evenodd" clip-rule="evenodd" d="M38.8527 34.6631C36.7491 34.6631 35.0439 36.3685 35.0439 38.4719V46.0894C35.0439 48.193 36.7491 49.8982 38.8527 49.8982H46.4702C48.5738 49.8982 50.279 48.193 50.279 46.0894V38.4719C50.279 36.3685 48.5738 34.6631 46.4702 34.6631H38.8527ZM48.3746 38.4719C48.3746 37.4201 47.522 36.5675 46.4702 36.5675H38.8527C37.8009 36.5675 36.9483 37.4201 36.9483 38.4719V46.0894C36.9483 47.1412 37.8009 47.9938 38.8527 47.9938H46.4702C47.522 47.9938 48.3746 47.1412 48.3746 46.0894V38.4719Z" fill="#49869A"/>
</svg>
