<svg width="67" height="64" viewBox="0 0 67 64" fill="none" xmlns="http://www.w3.org/2000/svg">
<path d="M0 15C0 6.71573 6.71573 0 15 0H52C60.2843 0 67 6.71573 67 15V49C67 57.2843 60.2843 64 52 64H15C6.71573 64 0 57.2843 0 49V15Z" fill="#B9EEFF"/>
<path fill-rule="evenodd" clip-rule="evenodd" d="M35.1599 20.8188C34.0443 21.9344 34.0443 23.743 35.1599 24.8586L40.6419 30.3408C41.7575 31.4564 43.5663 31.4564 44.6818 30.3408L50.164 24.8586C51.2794 23.743 51.2794 21.9344 50.164 20.8188L44.6818 15.3367C43.5663 14.2211 41.7575 14.2211 40.6419 15.3367L35.1599 20.8188ZM41.9887 16.6833L36.5065 22.1654C36.1346 22.5372 36.1346 23.1402 36.5065 23.512L41.9887 28.9942C42.3604 29.3659 42.9633 29.3659 43.3353 28.9942L48.8172 23.512C49.1891 23.1402 49.1891 22.5372 48.8172 22.1654L43.3353 16.6833C42.9633 16.3114 42.3604 16.3114 41.9887 16.6833Z" fill="#49869A"/>
<path fill-rule="evenodd" clip-rule="evenodd" d="M16 19.03C16 16.9264 17.7052 15.2212 19.8088 15.2212H27.4263C29.5299 15.2212 31.2351 16.9264 31.2351 19.03V26.6475C31.2351 28.751 29.5299 30.4562 27.4263 30.4562H19.8088C17.7052 30.4562 16 28.751 16 26.6475V19.03ZM17.9044 19.03C17.9044 17.9782 18.757 17.1256 19.8088 17.1256H27.4263C28.4781 17.1256 29.3307 17.9782 29.3307 19.03V26.6475C29.3307 27.6993 28.4781 28.5518 27.4263 28.5518H19.8088C18.757 28.5518 17.9044 27.6993 17.9044 26.6475V19.03Z" fill="#49869A"/>
<path fill-rule="evenodd" clip-rule="evenodd" d="M19.8088 34.2649C17.7052 34.2649 16 35.9703 16 38.0737V45.6912C16 47.7948 17.7052 49.5 19.8088 49.5H27.4263C29.5299 49.5 31.2351 47.7948 31.2351 45.6912V38.0737C31.2351 35.9703 29.5299 34.2649 27.4263 34.2649H19.8088ZM29.3307 38.0737C29.3307 37.0219 28.4781 36.1693 27.4263 36.1693H19.8088C18.757 36.1693 17.9044 37.0219 17.9044 38.0737V45.6912C17.9044 46.743 18.757 47.5956 19.8088 47.5956H27.4263C28.4781 47.5956 29.3307 46.743 29.3307 45.6912V38.0737Z" fill="#49869A"/>
<path fill-rule="evenodd" clip-rule="evenodd" d="M38.8527 34.2649C36.7491 34.2649 35.0439 35.9703 35.0439 38.0737V45.6912C35.0439 47.7948 36.7491 49.5 38.8527 49.5H46.4702C48.5738 49.5 50.279 47.7948 50.279 45.6912V38.0737C50.279 35.9703 48.5738 34.2649 46.4702 34.2649H38.8527ZM48.3746 38.0737C48.3746 37.0219 47.522 36.1693 46.4702 36.1693H38.8527C37.8009 36.1693 36.9483 37.0219 36.9483 38.0737V45.6912C36.9483 46.743 37.8009 47.5956 38.8527 47.5956H46.4702C47.522 47.5956 48.3746 46.743 48.3746 45.6912V38.0737Z" fill="#49869A"/>
</svg>
